<svg width="62" height="62" viewBox="0 0 62 62" fill="none" xmlns="http://www.w3.org/2000/svg">
<g filter="url(#filter0_d)">
<path fill-rule="evenodd" clip-rule="evenodd" d="M31 45C39.8366 45 47 37.8366 47 29C47 20.1634 39.8366 13 31 13C22.1634 13 15 20.1634 15 29C15 37.8366 22.1634 45 31 45Z" fill="white"/>
</g>
<path fill-rule="evenodd" clip-rule="evenodd" d="M28.6426 25.627H29.7856C30.3376 25.627 30.7856 26.075 30.7856 26.627C30.7856 27.179 30.3376 27.627 29.7856 27.627H28.6426V35.5C28.6426 36.052 28.1956 36.5 27.6426 36.5C27.0906 36.5 26.6426 36.052 26.6426 35.5V27.627H25.4996C24.9476 27.627 24.4996 27.179 24.4996 26.627C24.4996 26.075 24.9476 25.627 25.4996 25.627H26.6426V23.827C26.6426 23.275 27.0906 22.827 27.6426 22.827C28.1956 22.827 28.6426 23.275 28.6426 23.827V25.627ZM35.6661 30.9116H36.8091C37.3611 30.9116 37.8091 31.3596 37.8091 31.9116C37.8091 32.4636 37.3611 32.9116 36.8091 32.9116H35.6661V35.4996C35.6661 36.0526 35.2191 36.4996 34.6661 36.4996C34.1141 36.4996 33.6661 36.0526 33.6661 35.4996V32.9116H32.5231C31.9711 32.9116 31.5231 32.4636 31.5231 31.9116C31.5231 31.3596 31.9711 30.9116 32.5231 30.9116H33.6661V23.8276C33.6661 23.2746 34.1141 22.8276 34.6661 22.8276C35.2191 22.8276 35.6661 23.2746 35.6661 23.8276V30.9116Z" fill="#355F55"/>
<mask id="mask0" mask-type="alpha" maskUnits="userSpaceOnUse" x="24" y="22" width="14" height="15">
<path fill-rule="evenodd" clip-rule="evenodd" d="M28.6426 25.627H29.7856C30.3376 25.627 30.7856 26.075 30.7856 26.627C30.7856 27.179 30.3376 27.627 29.7856 27.627H28.6426V35.5C28.6426 36.052 28.1956 36.5 27.6426 36.5C27.0906 36.5 26.6426 36.052 26.6426 35.5V27.627H25.4996C24.9476 27.627 24.4996 27.179 24.4996 26.627C24.4996 26.075 24.9476 25.627 25.4996 25.627H26.6426V23.827C26.6426 23.275 27.0906 22.827 27.6426 22.827C28.1956 22.827 28.6426 23.275 28.6426 23.827V25.627ZM35.6661 30.9116H36.8091C37.3611 30.9116 37.8091 31.3596 37.8091 31.9116C37.8091 32.4636 37.3611 32.9116 36.8091 32.9116H35.6661V35.4996C35.6661 36.0526 35.2191 36.4996 34.6661 36.4996C34.1141 36.4996 33.6661 36.0526 33.6661 35.4996V32.9116H32.5231C31.9711 32.9116 31.5231 32.4636 31.5231 31.9116C31.5231 31.3596 31.9711 30.9116 32.5231 30.9116H33.6661V23.8276C33.6661 23.2746 34.1141 22.8276 34.6661 22.8276C35.2191 22.8276 35.6661 23.2746 35.6661 23.8276V30.9116Z" fill="white"/>
</mask>
<g mask="url(#mask0)">
<rect x="-14" y="-14.25" width="84" height="84" fill="#FC1055"/>
</g>
<defs>
<filter id="filter0_d" x="0" y="0" width="62" height="62" filterUnits="userSpaceOnUse" color-interpolation-filters="sRGB">
<feFlood flood-opacity="0" result="BackgroundImageFix"/>
<feColorMatrix in="SourceAlpha" type="matrix" values="0 0 0 0 0 0 0 0 0 0 0 0 0 0 0 0 0 0 127 0"/>
<feOffset dy="2"/>
<feGaussianBlur stdDeviation="7.5"/>
<feColorMatrix type="matrix" values="0 0 0 0 0.100345 0 0 0 0 0.23463 0 0 0 0 0.268201 0 0 0 0.08 0"/>
<feBlend mode="normal" in2="BackgroundImageFix" result="effect1_dropShadow"/>
<feBlend mode="normal" in="SourceGraphic" in2="effect1_dropShadow" result="shape"/>
</filter>
</defs>
</svg>
