<svg width="116" height="32" viewBox="0 0 116 32" fill="none" xmlns="http://www.w3.org/2000/svg">
<path d="M14.208 31H1.184V27.256L8.64 18.936H1.376V15.256H14.08V18.808L6.4 27.288H14.208V31ZM16.9058 26.712C16.9058 25.368 17.3431 24.2907 18.2178 23.48C19.0924 22.6693 20.2231 22.1573 21.6098 21.944L25.4818 21.368C26.2711 21.2613 26.6658 20.888 26.6658 20.248C26.6658 19.6507 26.4311 19.16 25.9618 18.776C25.5138 18.392 24.8631 18.2 24.0098 18.2C23.1138 18.2 22.3991 18.4453 21.8658 18.936C21.3538 19.4267 21.0658 20.0347 21.0018 20.76L17.2258 19.96C17.3751 18.5947 18.0471 17.3893 19.2418 16.344C20.4364 15.2987 22.0151 14.776 23.9778 14.776C26.3244 14.776 28.0524 15.3413 29.1618 16.472C30.2711 17.5813 30.8258 19.0107 30.8258 20.76V28.504C30.8258 29.4427 30.8898 30.2747 31.0178 31H27.1138C27.0071 30.5307 26.9538 29.9013 26.9538 29.112C25.9511 30.6693 24.4044 31.448 22.3138 31.448C20.6924 31.448 19.3804 30.9787 18.3778 30.04C17.3964 29.1013 16.9058 27.992 16.9058 26.712ZM23.2098 28.28C24.2124 28.28 25.0338 28.0027 25.6738 27.448C26.3351 26.872 26.6658 25.9333 26.6658 24.632V23.928L23.1138 24.472C21.8124 24.664 21.1618 25.3253 21.1618 26.456C21.1618 26.968 21.3431 27.4053 21.7058 27.768C22.0684 28.1093 22.5698 28.28 23.2098 28.28ZM39.3718 31H35.1158V15.256H39.3718V31ZM34.6038 10.104C34.6038 9.37867 34.8598 8.76 35.3718 8.248C35.8838 7.71467 36.5024 7.448 37.2278 7.448C37.9531 7.448 38.5718 7.704 39.0838 8.216C39.5958 8.728 39.8518 9.35733 39.8518 10.104C39.8518 10.808 39.5958 11.416 39.0838 11.928C38.5718 12.44 37.9531 12.696 37.2278 12.696C36.5024 12.696 35.8838 12.44 35.3718 11.928C34.8598 11.416 34.6038 10.808 34.6038 10.104ZM48.1843 21.944V31H43.9283V15.256H48.0563V17.208C48.5043 16.44 49.1443 15.8533 49.9763 15.448C50.8083 15.0427 51.6829 14.84 52.6003 14.84C54.4563 14.84 55.8643 15.4267 56.8243 16.6C57.8056 17.752 58.2963 19.2453 58.2963 21.08V31H54.0403V21.816C54.0403 20.8773 53.7949 20.12 53.3043 19.544C52.8349 18.968 52.1096 18.68 51.1283 18.68C50.2323 18.68 49.5176 18.9893 48.9843 19.608C48.4509 20.2267 48.1843 21.0053 48.1843 21.944ZM66.8398 26.424C67.6291 27.2133 68.5784 27.608 69.6878 27.608C70.7971 27.608 71.7358 27.2133 72.5038 26.424C73.2931 25.6347 73.6878 24.536 73.6878 23.128C73.6878 21.72 73.2931 20.6213 72.5038 19.832C71.7358 19.0427 70.7971 18.648 69.6878 18.648C68.5784 18.648 67.6291 19.0427 66.8398 19.832C66.0718 20.6213 65.6878 21.72 65.6878 23.128C65.6878 24.536 66.0718 25.6347 66.8398 26.424ZM63.7678 17.144C65.3464 15.5653 67.3198 14.776 69.6878 14.776C72.0558 14.776 74.0184 15.5653 75.5758 17.144C77.1544 18.7227 77.9438 20.7173 77.9438 23.128C77.9438 25.5387 77.1544 27.5333 75.5758 29.112C74.0184 30.6907 72.0558 31.48 69.6878 31.48C67.3198 31.48 65.3464 30.6907 63.7678 29.112C62.2104 27.5333 61.4318 25.5387 61.4318 23.128C61.4318 20.7173 62.2104 18.7227 63.7678 17.144ZM85.5273 26.424C86.3166 27.2133 87.2659 27.608 88.3753 27.608C89.4846 27.608 90.4233 27.2133 91.1913 26.424C91.9806 25.6347 92.3753 24.536 92.3753 23.128C92.3753 21.72 91.9806 20.6213 91.1913 19.832C90.4233 19.0427 89.4846 18.648 88.3753 18.648C87.2659 18.648 86.3166 19.0427 85.5273 19.832C84.7593 20.6213 84.3753 21.72 84.3753 23.128C84.3753 24.536 84.7593 25.6347 85.5273 26.424ZM82.4553 17.144C84.0339 15.5653 86.0073 14.776 88.3753 14.776C90.7433 14.776 92.7059 15.5653 94.2633 17.144C95.8419 18.7227 96.6313 20.7173 96.6313 23.128C96.6313 25.5387 95.8419 27.5333 94.2633 29.112C92.7059 30.6907 90.7433 31.48 88.3753 31.48C86.0073 31.48 84.0339 30.6907 82.4553 29.112C80.8979 27.5333 80.1193 25.5387 80.1193 23.128C80.1193 20.7173 80.8979 18.7227 82.4553 17.144Z" fill="black"/>
<path d="M104.128 4.848V3.492L97.156 3.492V4.848L99.916 4.848V12H101.356V4.848H104.128ZM114.669 12V3.492H112.713L109.989 9.984L107.229 3.492L105.309 3.492V12H106.713V5.76L109.341 12H110.589L113.241 5.736V12L114.669 12Z" fill="black"/>
</svg>
