<svg width="468" height="310" viewBox="0 0 468 310" fill="none" xmlns="http://www.w3.org/2000/svg">
<path opacity="0.2" d="M48.65 310L121.75 197.34L120.89 196.48C117.737 198.2 113.437 199.49 107.99 200.35C102.83 201.21 97.67 201.64 92.51 201.64C79.0367 201.64 66.71 199.06 55.53 193.9C44.35 188.74 34.6033 181.717 26.29 172.83C18.2633 163.943 11.9567 153.623 7.37 141.87C3.07 130.117 0.920001 117.647 0.920001 104.46C0.920001 88.6933 3.64333 74.36 9.09 61.46C14.5367 48.56 21.99 37.6667 31.45 28.78C41.1967 19.6066 52.6633 12.5833 65.85 7.71C79.3233 2.83666 93.8 0.399988 109.28 0.399988C125.047 0.399988 139.523 2.83666 152.71 7.71C166.183 12.2967 177.65 19.0333 187.11 27.92C196.857 36.8067 204.31 47.7 209.47 60.6C214.917 73.5 217.64 87.9767 217.64 104.03C217.64 120.083 214.917 134.703 209.47 147.89C204.31 160.79 197.573 173.977 189.26 187.45L111.43 310H48.65ZM163.46 104.89C163.46 97.15 162.027 89.9833 159.16 83.39C156.293 76.51 152.28 70.6333 147.12 65.76C142.247 60.6 136.37 56.5867 129.49 53.72C122.897 50.8533 115.73 49.42 107.99 49.42C100.25 49.42 92.94 50.8533 86.06 53.72C79.4667 56.5867 73.59 60.6 68.43 65.76C63.5567 70.6333 59.6867 76.51 56.82 83.39C53.9533 89.9833 52.52 97.15 52.52 104.89C52.52 112.63 53.9533 119.94 56.82 126.82C59.6867 133.413 63.5567 139.29 68.43 144.45C73.59 149.323 79.4667 153.193 86.06 156.06C92.94 158.927 100.25 160.36 107.99 160.36C115.73 160.36 122.897 158.927 129.49 156.06C136.37 153.193 142.247 149.323 147.12 144.45C152.28 139.29 156.293 133.413 159.16 126.82C162.027 119.94 163.46 112.63 163.46 104.89ZM371.923 248.08H242.493V196.91L365.043 5.56H423.523V201.64H467.813V248.08H423.523V310H371.923V248.08ZM371.923 78.66H371.063L294.953 201.64H371.923V78.66Z" fill="#ECCA7B"/>
</svg>
