<svg width="21" height="15" viewBox="0 0 21 15" fill="none" xmlns="http://www.w3.org/2000/svg">
<path fill-rule="evenodd" clip-rule="evenodd" d="M10.3337 3.5739C12.5584 3.57399 14.6981 4.41168 16.3105 5.91384C16.4319 6.02981 16.626 6.02834 16.7455 5.91056L17.9061 4.76272C17.9667 4.70298 18.0005 4.62206 18 4.53786C17.9995 4.45366 17.9647 4.37313 17.9035 4.31408C13.6716 0.339748 6.9952 0.339748 2.76328 4.31408C2.70198 4.37308 2.6672 4.45359 2.66663 4.53779C2.66607 4.62199 2.69977 4.70294 2.76027 4.76272L3.92122 5.91056C4.04072 6.02852 4.23494 6.02999 4.35628 5.91384C5.96885 4.41159 8.10876 3.57389 10.3337 3.5739ZM10.3321 7.29945C11.5558 7.29938 12.7359 7.75598 13.643 8.58054C13.7657 8.69756 13.9589 8.69502 14.0785 8.57482L15.2391 7.39766C15.3002 7.33591 15.3342 7.25215 15.3333 7.16511C15.3324 7.07807 15.2968 6.99502 15.2344 6.93453C12.4722 4.35515 8.19441 4.35515 5.43212 6.93453C5.36973 6.99502 5.33413 7.07811 5.33331 7.16518C5.33249 7.25225 5.36652 7.336 5.42777 7.39766L6.58802 8.57482C6.70761 8.69502 6.90088 8.69756 7.02357 8.58054C7.93006 7.75652 9.10919 7.29996 10.3321 7.29945ZM12.6666 10.023C12.6683 10.1085 12.634 10.1909 12.5717 10.2507L10.557 12.2419C10.4979 12.3004 10.4174 12.3333 10.3334 12.3333C10.2494 12.3333 10.1688 12.3004 10.1098 12.2419L8.09468 10.2507C8.03243 10.1908 7.99818 10.1084 8.00003 10.023C8.00188 9.93752 8.03965 9.85659 8.10443 9.79931C9.39113 8.73356 11.2756 8.73356 12.5623 9.79931C12.6271 9.85664 12.6648 9.93759 12.6666 10.023Z" fill="black"/>
</svg>
